<mxfile host="app.diagrams.net" agent="Mozilla/5.0 (Windows NT 10.0; Win64; x64) AppleWebKit/537.36 (KHTML, like Gecko) Chrome/136.0.0.0 Safari/537.36" version="27.1.0">
  <diagram name="Page-1" id="G4oX14uJd1HOGOYN4kB6">
    <mxGraphModel dx="1226" dy="620" grid="1" gridSize="10" guides="1" tooltips="1" connect="1" arrows="1" fold="1" page="1" pageScale="1" pageWidth="1169" pageHeight="827" math="0" shadow="0">
      <root>
        <mxCell id="0" />
        <mxCell id="1" parent="0" />
        <mxCell id="2-eO3TNTJAXBCtSOVl_R-1" value="" style="rounded=0;whiteSpace=wrap;html=1;fillColor=none;dashed=1;dashPattern=1 2;" parent="1" vertex="1">
          <mxGeometry x="40" y="120" width="210" height="400" as="geometry" />
        </mxCell>
        <mxCell id="2-eO3TNTJAXBCtSOVl_R-2" value="&lt;font style=&quot;font-size: 24px;&quot;&gt;Sources&lt;/font&gt;" style="rounded=1;whiteSpace=wrap;html=1;strokeColor=none;" parent="1" vertex="1">
          <mxGeometry x="80" y="100" width="110" height="50" as="geometry" />
        </mxCell>
        <mxCell id="G92gdzbtn-PuOKiVmxWX-9" style="edgeStyle=orthogonalEdgeStyle;rounded=0;orthogonalLoop=1;jettySize=auto;html=1;entryX=0;entryY=0.5;entryDx=0;entryDy=0;" edge="1" parent="1" source="2-eO3TNTJAXBCtSOVl_R-3" target="2-eO3TNTJAXBCtSOVl_R-19">
          <mxGeometry relative="1" as="geometry" />
        </mxCell>
        <mxCell id="G92gdzbtn-PuOKiVmxWX-10" style="edgeStyle=orthogonalEdgeStyle;rounded=0;orthogonalLoop=1;jettySize=auto;html=1;entryX=0;entryY=0.5;entryDx=0;entryDy=0;" edge="1" parent="1" source="2-eO3TNTJAXBCtSOVl_R-3" target="2-eO3TNTJAXBCtSOVl_R-20">
          <mxGeometry relative="1" as="geometry" />
        </mxCell>
        <mxCell id="G92gdzbtn-PuOKiVmxWX-11" style="edgeStyle=orthogonalEdgeStyle;rounded=0;orthogonalLoop=1;jettySize=auto;html=1;" edge="1" parent="1" source="2-eO3TNTJAXBCtSOVl_R-3" target="2-eO3TNTJAXBCtSOVl_R-21">
          <mxGeometry relative="1" as="geometry" />
        </mxCell>
        <mxCell id="2-eO3TNTJAXBCtSOVl_R-3" value="&lt;b&gt;&lt;font style=&quot;font-size: 13px;&quot;&gt;ERP&lt;/font&gt;&lt;/b&gt;" style="image;aspect=fixed;html=1;points=[];align=center;fontSize=12;image=img/lib/azure2/general/Folder_Blank.svg;" parent="1" vertex="1">
          <mxGeometry x="104.19" y="379" width="61.61" height="50" as="geometry" />
        </mxCell>
        <mxCell id="2-eO3TNTJAXBCtSOVl_R-22" style="edgeStyle=orthogonalEdgeStyle;rounded=0;orthogonalLoop=1;jettySize=auto;html=1;" parent="1" source="2-eO3TNTJAXBCtSOVl_R-4" target="2-eO3TNTJAXBCtSOVl_R-10" edge="1">
          <mxGeometry relative="1" as="geometry" />
        </mxCell>
        <mxCell id="2-eO3TNTJAXBCtSOVl_R-23" style="edgeStyle=orthogonalEdgeStyle;rounded=0;orthogonalLoop=1;jettySize=auto;html=1;entryX=0;entryY=0.5;entryDx=0;entryDy=0;" parent="1" source="2-eO3TNTJAXBCtSOVl_R-4" target="2-eO3TNTJAXBCtSOVl_R-7" edge="1">
          <mxGeometry relative="1" as="geometry" />
        </mxCell>
        <mxCell id="2-eO3TNTJAXBCtSOVl_R-25" style="edgeStyle=orthogonalEdgeStyle;rounded=0;orthogonalLoop=1;jettySize=auto;html=1;entryX=0;entryY=0.25;entryDx=0;entryDy=0;" parent="1" source="2-eO3TNTJAXBCtSOVl_R-4" target="2-eO3TNTJAXBCtSOVl_R-12" edge="1">
          <mxGeometry relative="1" as="geometry" />
        </mxCell>
        <mxCell id="2-eO3TNTJAXBCtSOVl_R-4" value="&lt;b&gt;&lt;font style=&quot;font-size: 13px;&quot;&gt;CRM&lt;/font&gt;&lt;/b&gt;" style="image;aspect=fixed;html=1;points=[];align=center;fontSize=12;image=img/lib/azure2/general/Folder_Blank.svg;" parent="1" vertex="1">
          <mxGeometry x="104.19" y="240" width="61.61" height="50" as="geometry" />
        </mxCell>
        <mxCell id="2-eO3TNTJAXBCtSOVl_R-5" value="" style="rounded=1;whiteSpace=wrap;html=1;fillColor=none;strokeColor=#d6b656;glass=0;shadow=0;labelBackgroundColor=none;textShadow=0;" parent="1" vertex="1">
          <mxGeometry x="340" y="170" width="220" height="350" as="geometry" />
        </mxCell>
        <mxCell id="2-eO3TNTJAXBCtSOVl_R-6" value="&lt;font style=&quot;font-size: 20px;&quot;&gt;&lt;b&gt;Bronze Layer&lt;/b&gt;&lt;/font&gt;" style="rounded=1;whiteSpace=wrap;html=1;fillColor=#ffe6cc;strokeColor=#d79b00;" parent="1" vertex="1">
          <mxGeometry x="340" y="110" width="220" height="50" as="geometry" />
        </mxCell>
        <mxCell id="kiVYF3th_f4s63f7shYR-10" style="edgeStyle=orthogonalEdgeStyle;rounded=0;orthogonalLoop=1;jettySize=auto;html=1;exitX=1;exitY=0.5;exitDx=0;exitDy=0;entryX=0;entryY=0.5;entryDx=0;entryDy=0;" parent="1" source="2-eO3TNTJAXBCtSOVl_R-7" target="kiVYF3th_f4s63f7shYR-3" edge="1">
          <mxGeometry relative="1" as="geometry" />
        </mxCell>
        <mxCell id="2-eO3TNTJAXBCtSOVl_R-7" value="&lt;font style=&quot;font-size: 16px;&quot;&gt;crm_cust_info&lt;/font&gt;" style="rounded=1;whiteSpace=wrap;html=1;fillColor=#ffe6cc;strokeColor=#d79b00;" parent="1" vertex="1">
          <mxGeometry x="365" y="250" width="170" height="30" as="geometry" />
        </mxCell>
        <mxCell id="kiVYF3th_f4s63f7shYR-9" style="edgeStyle=orthogonalEdgeStyle;rounded=0;orthogonalLoop=1;jettySize=auto;html=1;entryX=0;entryY=0.5;entryDx=0;entryDy=0;" parent="1" source="2-eO3TNTJAXBCtSOVl_R-10" target="kiVYF3th_f4s63f7shYR-4" edge="1">
          <mxGeometry relative="1" as="geometry" />
        </mxCell>
        <mxCell id="2-eO3TNTJAXBCtSOVl_R-10" value="&lt;font style=&quot;font-size: 16px;&quot;&gt;crm_sales_details&lt;/font&gt;" style="rounded=1;whiteSpace=wrap;html=1;fillColor=#ffe6cc;strokeColor=#d79b00;" parent="1" vertex="1">
          <mxGeometry x="365" y="210" width="170" height="30" as="geometry" />
        </mxCell>
        <mxCell id="kiVYF3th_f4s63f7shYR-11" style="edgeStyle=orthogonalEdgeStyle;rounded=0;orthogonalLoop=1;jettySize=auto;html=1;exitX=1;exitY=0.5;exitDx=0;exitDy=0;entryX=0;entryY=0.5;entryDx=0;entryDy=0;" parent="1" source="2-eO3TNTJAXBCtSOVl_R-12" target="kiVYF3th_f4s63f7shYR-5" edge="1">
          <mxGeometry relative="1" as="geometry" />
        </mxCell>
        <mxCell id="2-eO3TNTJAXBCtSOVl_R-12" value="&lt;font style=&quot;font-size: 16px;&quot;&gt;crm_prd_info&lt;/font&gt;" style="rounded=1;whiteSpace=wrap;html=1;fillColor=#ffe6cc;strokeColor=#d79b00;" parent="1" vertex="1">
          <mxGeometry x="365" y="290" width="170" height="30" as="geometry" />
        </mxCell>
        <mxCell id="kiVYF3th_f4s63f7shYR-12" style="edgeStyle=orthogonalEdgeStyle;rounded=0;orthogonalLoop=1;jettySize=auto;html=1;exitX=1;exitY=0.5;exitDx=0;exitDy=0;" parent="1" source="2-eO3TNTJAXBCtSOVl_R-19" target="kiVYF3th_f4s63f7shYR-6" edge="1">
          <mxGeometry relative="1" as="geometry" />
        </mxCell>
        <mxCell id="2-eO3TNTJAXBCtSOVl_R-19" value="&lt;font style=&quot;font-size: 16px;&quot;&gt;erp_cust_az12&lt;/font&gt;" style="rounded=1;whiteSpace=wrap;html=1;fillColor=#ffe6cc;strokeColor=#d79b00;" parent="1" vertex="1">
          <mxGeometry x="365" y="350" width="170" height="30" as="geometry" />
        </mxCell>
        <mxCell id="kiVYF3th_f4s63f7shYR-14" style="edgeStyle=orthogonalEdgeStyle;rounded=0;orthogonalLoop=1;jettySize=auto;html=1;exitX=1;exitY=0.5;exitDx=0;exitDy=0;" parent="1" source="2-eO3TNTJAXBCtSOVl_R-20" target="kiVYF3th_f4s63f7shYR-7" edge="1">
          <mxGeometry relative="1" as="geometry" />
        </mxCell>
        <mxCell id="2-eO3TNTJAXBCtSOVl_R-20" value="&lt;font style=&quot;font-size: 16px;&quot;&gt;erp_px_cat_g1v2&lt;/font&gt;" style="rounded=1;whiteSpace=wrap;html=1;fillColor=#ffe6cc;strokeColor=#d79b00;" parent="1" vertex="1">
          <mxGeometry x="365" y="429" width="170" height="30" as="geometry" />
        </mxCell>
        <mxCell id="kiVYF3th_f4s63f7shYR-13" style="edgeStyle=orthogonalEdgeStyle;rounded=0;orthogonalLoop=1;jettySize=auto;html=1;exitX=1;exitY=0.5;exitDx=0;exitDy=0;" parent="1" source="2-eO3TNTJAXBCtSOVl_R-21" target="kiVYF3th_f4s63f7shYR-8" edge="1">
          <mxGeometry relative="1" as="geometry" />
        </mxCell>
        <mxCell id="2-eO3TNTJAXBCtSOVl_R-21" value="&lt;font style=&quot;font-size: 16px;&quot;&gt;erp_loc_a101&lt;/font&gt;" style="rounded=1;whiteSpace=wrap;html=1;fillColor=#ffe6cc;strokeColor=#d79b00;" parent="1" vertex="1">
          <mxGeometry x="365" y="390" width="170" height="30" as="geometry" />
        </mxCell>
        <mxCell id="kiVYF3th_f4s63f7shYR-1" value="" style="rounded=1;whiteSpace=wrap;html=1;fillColor=none;strokeColor=#36393d;glass=0;shadow=0;labelBackgroundColor=none;textShadow=0;" parent="1" vertex="1">
          <mxGeometry x="630" y="170" width="220" height="350" as="geometry" />
        </mxCell>
        <mxCell id="kiVYF3th_f4s63f7shYR-2" value="&lt;font style=&quot;font-size: 20px;&quot;&gt;&lt;b&gt;Silver Layer&lt;/b&gt;&lt;/font&gt;" style="rounded=1;whiteSpace=wrap;html=1;fillColor=#eeeeee;strokeColor=#36393d;" parent="1" vertex="1">
          <mxGeometry x="630" y="110" width="220" height="50" as="geometry" />
        </mxCell>
        <mxCell id="kiVYF3th_f4s63f7shYR-3" value="&lt;font style=&quot;font-size: 16px;&quot;&gt;crm_cust_info&lt;/font&gt;" style="rounded=1;whiteSpace=wrap;html=1;fillColor=#eeeeee;strokeColor=#36393d;" parent="1" vertex="1">
          <mxGeometry x="655" y="250" width="170" height="30" as="geometry" />
        </mxCell>
        <mxCell id="kiVYF3th_f4s63f7shYR-4" value="&lt;font style=&quot;font-size: 16px;&quot;&gt;crm_sales_details&lt;/font&gt;" style="rounded=1;whiteSpace=wrap;html=1;fillColor=#eeeeee;strokeColor=#36393d;" parent="1" vertex="1">
          <mxGeometry x="655" y="210" width="170" height="30" as="geometry" />
        </mxCell>
        <mxCell id="kiVYF3th_f4s63f7shYR-5" value="&lt;font style=&quot;font-size: 16px;&quot;&gt;crm_prd_info&lt;/font&gt;" style="rounded=1;whiteSpace=wrap;html=1;fillColor=#eeeeee;strokeColor=#36393d;" parent="1" vertex="1">
          <mxGeometry x="655" y="290" width="170" height="30" as="geometry" />
        </mxCell>
        <mxCell id="kiVYF3th_f4s63f7shYR-6" value="&lt;font style=&quot;font-size: 16px;&quot;&gt;erp_cust_az12&lt;/font&gt;" style="rounded=1;whiteSpace=wrap;html=1;fillColor=#eeeeee;strokeColor=#36393d;" parent="1" vertex="1">
          <mxGeometry x="655" y="350" width="170" height="30" as="geometry" />
        </mxCell>
        <mxCell id="kiVYF3th_f4s63f7shYR-7" value="&lt;font style=&quot;font-size: 16px;&quot;&gt;erp_px_cat_g1v2&lt;/font&gt;" style="rounded=1;whiteSpace=wrap;html=1;fillColor=#eeeeee;strokeColor=#36393d;" parent="1" vertex="1">
          <mxGeometry x="655" y="429" width="170" height="30" as="geometry" />
        </mxCell>
        <mxCell id="kiVYF3th_f4s63f7shYR-8" value="&lt;font style=&quot;font-size: 16px;&quot;&gt;erp_loc_a101&lt;/font&gt;" style="rounded=1;whiteSpace=wrap;html=1;fillColor=#eeeeee;strokeColor=#36393d;" parent="1" vertex="1">
          <mxGeometry x="655" y="390" width="170" height="30" as="geometry" />
        </mxCell>
        <mxCell id="G92gdzbtn-PuOKiVmxWX-1" value="" style="rounded=1;whiteSpace=wrap;html=1;fillColor=none;strokeColor=#d6b656;glass=0;shadow=0;labelBackgroundColor=none;textShadow=0;" vertex="1" parent="1">
          <mxGeometry x="930" y="170" width="220" height="350" as="geometry" />
        </mxCell>
        <mxCell id="G92gdzbtn-PuOKiVmxWX-2" value="&lt;font style=&quot;font-size: 20px;&quot;&gt;&lt;b&gt;Gold Layer&lt;/b&gt;&lt;/font&gt;" style="rounded=1;whiteSpace=wrap;html=1;fillColor=#fff2cc;strokeColor=#d6b656;" vertex="1" parent="1">
          <mxGeometry x="930" y="110" width="220" height="50" as="geometry" />
        </mxCell>
        <mxCell id="G92gdzbtn-PuOKiVmxWX-3" value="&lt;font style=&quot;font-size: 16px;&quot;&gt;dim_customer&lt;/font&gt;" style="rounded=1;whiteSpace=wrap;html=1;fillColor=#fff2cc;strokeColor=#d6b656;" vertex="1" parent="1">
          <mxGeometry x="955" y="320" width="170" height="30" as="geometry" />
        </mxCell>
        <mxCell id="G92gdzbtn-PuOKiVmxWX-4" value="&lt;font style=&quot;font-size: 16px;&quot;&gt;fact_sales&lt;/font&gt;" style="rounded=1;whiteSpace=wrap;html=1;fillColor=#fff2cc;strokeColor=#d6b656;" vertex="1" parent="1">
          <mxGeometry x="955" y="280" width="170" height="30" as="geometry" />
        </mxCell>
        <mxCell id="G92gdzbtn-PuOKiVmxWX-5" value="&lt;font style=&quot;font-size: 16px;&quot;&gt;dim_products&lt;/font&gt;" style="rounded=1;whiteSpace=wrap;html=1;fillColor=#fff2cc;strokeColor=#d6b656;" vertex="1" parent="1">
          <mxGeometry x="955" y="360" width="170" height="30" as="geometry" />
        </mxCell>
        <mxCell id="G92gdzbtn-PuOKiVmxWX-14" value="" style="endArrow=classic;html=1;rounded=0;exitX=1;exitY=0.5;exitDx=0;exitDy=0;entryX=0;entryY=0.5;entryDx=0;entryDy=0;jumpStyle=gap;" edge="1" parent="1" source="kiVYF3th_f4s63f7shYR-4" target="G92gdzbtn-PuOKiVmxWX-4">
          <mxGeometry width="50" height="50" relative="1" as="geometry">
            <mxPoint x="860" y="280" as="sourcePoint" />
            <mxPoint x="910" y="230" as="targetPoint" />
          </mxGeometry>
        </mxCell>
        <mxCell id="G92gdzbtn-PuOKiVmxWX-15" value="" style="endArrow=classic;html=1;rounded=0;exitX=1;exitY=0.5;exitDx=0;exitDy=0;entryX=0;entryY=0.5;entryDx=0;entryDy=0;jumpStyle=gap;" edge="1" parent="1" source="kiVYF3th_f4s63f7shYR-3" target="G92gdzbtn-PuOKiVmxWX-3">
          <mxGeometry width="50" height="50" relative="1" as="geometry">
            <mxPoint x="870" y="379" as="sourcePoint" />
            <mxPoint x="920" y="329" as="targetPoint" />
          </mxGeometry>
        </mxCell>
        <mxCell id="G92gdzbtn-PuOKiVmxWX-18" value="" style="endArrow=classic;html=1;rounded=0;entryX=0;entryY=0.5;entryDx=0;entryDy=0;exitX=1;exitY=0.5;exitDx=0;exitDy=0;jumpStyle=gap;" edge="1" parent="1" source="kiVYF3th_f4s63f7shYR-6" target="G92gdzbtn-PuOKiVmxWX-3">
          <mxGeometry width="50" height="50" relative="1" as="geometry">
            <mxPoint x="810" y="380" as="sourcePoint" />
            <mxPoint x="860" y="330" as="targetPoint" />
          </mxGeometry>
        </mxCell>
        <mxCell id="G92gdzbtn-PuOKiVmxWX-19" value="" style="endArrow=classic;html=1;rounded=0;exitX=1;exitY=0.5;exitDx=0;exitDy=0;entryX=0;entryY=0.5;entryDx=0;entryDy=0;jumpStyle=gap;" edge="1" parent="1" source="kiVYF3th_f4s63f7shYR-8" target="G92gdzbtn-PuOKiVmxWX-3">
          <mxGeometry width="50" height="50" relative="1" as="geometry">
            <mxPoint x="860" y="400" as="sourcePoint" />
            <mxPoint x="910" y="350" as="targetPoint" />
          </mxGeometry>
        </mxCell>
        <mxCell id="G92gdzbtn-PuOKiVmxWX-20" value="" style="endArrow=classic;html=1;rounded=0;exitX=1;exitY=0.5;exitDx=0;exitDy=0;entryX=0;entryY=0.5;entryDx=0;entryDy=0;jumpStyle=gap;" edge="1" parent="1" source="kiVYF3th_f4s63f7shYR-7" target="G92gdzbtn-PuOKiVmxWX-5">
          <mxGeometry width="50" height="50" relative="1" as="geometry">
            <mxPoint x="860" y="420" as="sourcePoint" />
            <mxPoint x="910" y="370" as="targetPoint" />
          </mxGeometry>
        </mxCell>
        <mxCell id="G92gdzbtn-PuOKiVmxWX-21" value="" style="endArrow=classic;html=1;rounded=0;entryX=0;entryY=0.5;entryDx=0;entryDy=0;exitX=1;exitY=0.5;exitDx=0;exitDy=0;jumpStyle=gap;" edge="1" parent="1" source="kiVYF3th_f4s63f7shYR-5" target="G92gdzbtn-PuOKiVmxWX-5">
          <mxGeometry width="50" height="50" relative="1" as="geometry">
            <mxPoint x="810" y="380" as="sourcePoint" />
            <mxPoint x="860" y="330" as="targetPoint" />
          </mxGeometry>
        </mxCell>
        <mxCell id="G92gdzbtn-PuOKiVmxWX-22" value="Data Flow Diagram" style="text;html=1;align=center;verticalAlign=middle;whiteSpace=wrap;rounded=0;fontStyle=1;fontSize=16;" vertex="1" parent="1">
          <mxGeometry x="40" y="10" width="200" height="30" as="geometry" />
        </mxCell>
      </root>
    </mxGraphModel>
  </diagram>
</mxfile>
